<?xml version="1.0" encoding="utf-8"?>
<!-- Generator: Adobe Illustrator 19.2.1, SVG Export Plug-In . SVG Version: 6.00 Build 0)  -->
<svg version="1.1" id="layer" xmlns="http://www.w3.org/2000/svg" xmlns:xlink="http://www.w3.org/1999/xlink" x="0px" y="0px"
	 viewBox="0 0 652 652" style="enable-background:new 0 0 652 652;" xml:space="preserve">
<style type="text/css">
	.st0{fill:#D20924;}
	.st1{fill:#FFFFFF;}
</style>
<path class="st0" d="M609.6,264.8c2.8,0,5.2,1,7.2,2.9c2,2,3,4.3,3,7c0,2.8-1,5.2-3,7.2c-2,2-4.4,2.9-7.2,2.9c-2.8,0-5.2-1-7.1-2.9
	c-2-2-3-4.4-3-7.2c0-2.8,1-5.1,3-7C604.4,265.8,606.8,264.8,609.6,264.8 M621.4,274.8c0-3.2-1.2-5.9-3.4-8.2
	c-2.3-2.3-5.1-3.5-8.3-3.5c-3.2,0-6,1.2-8.3,3.5c-2.3,2.3-3.4,5-3.4,8.2c0,3.3,1.1,6,3.4,8.4c2.3,2.2,5.1,3.4,8.3,3.4
	c3.3,0,6-1.2,8.3-3.4C620.3,280.8,621.4,278,621.4,274.8 M612.7,272.2c0,1-0.5,1.7-1.3,2c-0.5,0.2-1.2,0.3-2.2,0.3h-2.1v-4.6h2
	c1.3,0,2.2,0.1,2.8,0.4C612.4,270.7,612.7,271.3,612.7,272.2 M604.9,268.4v12.8h2.3v-5h1.8c1.2,0,2.1,0.1,2.6,0.4
	c0.8,0.5,1.2,1.4,1.2,2.9v1l0.1,0.4c0,0,0,0.1,0,0.1c0,0.1,0,0.1,0,0.1h2.1l-0.1-0.2c-0.1-0.1-0.1-0.3-0.1-0.7c0-0.4,0-0.7,0-1v-0.9
	c0-0.7-0.2-1.3-0.7-2c-0.5-0.7-1.2-1.1-2.2-1.3c0.8-0.1,1.4-0.4,1.9-0.7c0.8-0.5,1.3-1.4,1.3-2.5c0-1.6-0.7-2.6-2-3.2
	c-0.8-0.3-1.9-0.5-3.5-0.5H604.9z M220.2,382.5h34.5V260h-34.5V382.5z M21.4,260h51.9c26.3,0,38.2,17.5,38.2,33
	c0,19.8-9.6,29.7-37.8,50l-17.9,13.4v26.1H21.4V260z M55.9,323.5l8.4-5.8c6.6-4.6,11.4-9.4,11.4-19.7c0-10-4.5-14.9-13.2-14.9h-6.6
	V323.5z M405.9,260v80.2c0,34.3,16.1,44.6,45,44.6c28.9,0,45-10.3,45-44.6V260h-34.5v88.4c0,11.8-3.9,14.8-10.5,14.8
	c-6.5,0-10.5-2.9-10.5-14.8V260H405.9z M211.9,382.5l-19.8-55.7c11.6-10.5,16.6-20.2,16.6-33.8c0-15.5-12-33-38.3-33.1h-52v122.5
	H153v-26.1l12.8-9.6l12.3,35.8H211.9z M153,323.5v-40.4h6.6c8.8,0,13.5,4.8,13.5,14.9c0,10.4-5,15.1-11.6,19.6L153,323.5z
	 M540.3,290c0-5.4,3.4-10.6,10.6-10.8c12.6-0.3,15.3,17.5,15.3,17.5l24.3-18.2c-4.3-13.7-16.8-20.9-40.4-20.9
	c-29.1,0-43.4,13.5-43.4,38.2c0,43.4,54.2,31.4,54.2,55.5c0,6.7-4.1,11.9-11.2,11.9c-6.5,0-11.1-3.8-11.1-14.2v-2.9h-33.4v4.2
	c0,25.4,15.9,34.5,44.4,34.5c30.6,0,47-11.7,47-37.7C596.6,302.4,540.3,314.1,540.3,290 M269.2,382.5h32.4v-75h0.5l18.2,50.4h20.9
	l18-50.4h0.5v75H392V260h-42.3l-18.8,54.5h-0.3l-19-54.5h-42.3V382.5z"/>
<path class="st1" d="M40.2,332.3c2.4,0,3.1-2.3,3.1-4.3c0-2.2-0.8-3.7-2.3-3.7c-1.3,0-1.8,1-2,2.6l-0.5,3c-0.3,1.6-0.9,4.1-3.6,4.1
	c-2.3,0-4-2-4-5.4c0-2.7,1-5.6,4.1-5.8v2c-1.1,0.2-2.3,0.8-2.3,4.1c0,1.4,0.6,3.1,2,3.1c0.8,0,1.5-0.5,1.8-2.1l0.6-3.4
	c0.2-1.1,0.7-4.1,3.5-4.1c3.5,0,4.5,3.1,4.5,5.9c0,3-1.1,6.2-4.9,6.2V332.3z M44.7,305.1v-2.2l-13.5-4.7v2.1l10.9,3.5v0l-10.9,3.8
	v2.3l10.9,3.7v0l-10.9,3.5v2.2l13.5-4.5v-2.2l-11.3-3.7v0L44.7,305.1z M44.7,294.2v-11.1h-1.8v9.1h-4.4v-8.6h-1.8v8.6h-3.8v-8.9
	h-1.8v10.9H44.7z"/>
</svg>
