<?xml version="1.0" encoding="UTF-8" standalone="no"?>
<!-- Created with Inkscape (http://www.inkscape.org/) -->

<svg
   xmlns:dc="http://purl.org/dc/elements/1.1/"
   xmlns:cc="http://creativecommons.org/ns#"
   xmlns:rdf="http://www.w3.org/1999/02/22-rdf-syntax-ns#"
   xmlns:svg="http://www.w3.org/2000/svg"
   xmlns="http://www.w3.org/2000/svg"
   xmlns:sodipodi="http://sodipodi.sourceforge.net/DTD/sodipodi-0.dtd"
   xmlns:inkscape="http://www.inkscape.org/namespaces/inkscape"
   width="479.69632"
   height="175.88571"
   viewBox="0 0 126.91965 46.536429"
   version="1.1"
   id="svg8"
   inkscape:version="0.92.3 (2405546, 2018-03-11)"
   sodipodi:docname="fjall.svg">
  <defs
     id="defs2">
	
	
</defs>
  <sodipodi:namedview
     id="base"
     pagecolor="#00ffff"
     bordercolor="#666666"
     borderopacity="1.0"
     inkscape:pageopacity="0"
     inkscape:pageshadow="2"
     inkscape:zoom="0.35"
     inkscape:cx="292.94998"
     inkscape:cy="-129.63573"
     inkscape:document-units="px"
     inkscape:current-layer="layer1"
     showgrid="false"
     units="px"
     fit-margin-top="0.5"
     fit-margin-left="0.5"
     fit-margin-right="0.5"
     fit-margin-bottom="0.5"
     inkscape:window-width="1920"
     inkscape:window-height="1001"
     inkscape:window-x="-9"
     inkscape:window-y="-9"
     inkscape:window-maximized="1" />
  <metadata
     id="metadata5">
    <rdf:RDF>
      <cc:Work
         rdf:about="">
        <dc:format>image/svg+xml</dc:format>
        <dc:type
           rdf:resource="http://purl.org/dc/dcmitype/StillImage" />
        <dc:title></dc:title>
      </cc:Work>
    </rdf:RDF>
  </metadata>
  <g
     inkscape:label="Layer 1"
     inkscape:groupmode="layer"
     id="layer1"
     transform="translate(-28.323651,-67.997447)">
    <g
       id="g78"
       transform="matrix(0.5817888,0,0,0.5817888,11.900594,28.49262)">
      <g
         transform="matrix(0.26458333,0,0,0.26458333,28.455942,68.129739)"
         id="g16">
		<g
   id="g14">
			<path
   id="path12"
   d="m 443.9,241.7 9.7,-27.4 10,27.4 z m -115.8,-43 h 15.3 c 6.9,0 10.6,4.4 10.6,9.4 0,5 -3.7,9.4 -10.6,9.4 h -15.3 z m 475.1,-35.9 c -10.6,0 -19.7,8.7 -19.7,19.7 v 39.9 l -33.4,-49.6 c -3.7,-5.6 -9,-10 -17.2,-10 -10.9,0 -19.7,8.7 -19.7,19.7 v 91.4 c 0,10.9 8.7,19.7 19.7,19.7 10.9,0 19.7,-8.7 19.7,-19.7 V 233 l 33.4,50.5 c 3.7,5.6 10,10 17.5,10 10.9,0 19.3,-8.7 19.3,-19.7 v -91.4 c 0.1,-10.8 -8.7,-19.6 -19.6,-19.6 m -112.6,37.5 c 10.3,0 18.7,-8.4 18.7,-18.7 0,-10.3 -8.4,-18.7 -18.7,-18.7 h -53.3 c -10.9,0 -19.7,8.7 -19.7,19.7 V 274 c 0,10.9 8.7,19.7 19.7,19.7 h 53.3 c 10.3,0 18.7,-8.4 18.7,-18.7 0,-10.3 -8.4,-18.7 -18.7,-18.7 h -33.4 v -12.2 h 27.1 c 9,0 16.5,-7.5 16.5,-16.2 0,-9 -7.5,-16.5 -16.5,-16.5 h -27.1 v -10.9 h 33.4 z m -96.1,-37.5 c -9,0 -15.9,4.7 -18.7,12.8 l -22.1,58.3 -22.5,-58.3 c -2.8,-8.1 -9.7,-12.8 -18.7,-12.8 -14.3,0 -23.1,14.3 -17.5,28.7 l 34.9,85.8 c 3.7,9.4 10.9,16.2 23.7,16.2 12.5,0 19.7,-6.9 23.4,-16.2 l 34.9,-85.8 c 6,-14 -2.7,-28.7 -17.4,-28.7 m -117.9,15.9 c -4.1,-9.4 -11.2,-15.9 -22.8,-15.9 -11.9,0 -18.7,6.6 -22.8,15.9 l -37,86.4 c -5.6,12.8 2.2,28.4 18.1,28.4 8.1,0 15.6,-5 18.1,-12.8 l 2.5,-7.5 h 41.8 l 2.8,7.8 c 2.5,6.9 9.4,12.5 18.4,12.5 15.3,0 23.1,-15.6 17.8,-27.8 z m -105.7,63 c 13.4,-6.6 22.5,-18.7 22.5,-35.6 0,-27.4 -22.5,-43.4 -49,-43.4 h -36.2 c -10.9,0 -19.7,8.7 -19.7,19.7 v 91.4 c 0,10.9 8.7,19.7 19.7,19.7 11.2,0 20,-8.7 20,-19.7 v -25.6 l 25.3,36.5 c 4.1,5.6 10,8.7 16.5,8.7 17.2,0 25.3,-18.4 15.9,-31.2 z m 104.5,-77 c 0,4.4 3.7,8.1 8.1,8.1 4.7,0 8.4,-3.7 8.4,-8.1 0,-4.4 -3.7,-8.1 -8.4,-8.1 -4.4,0 -8.1,3.7 -8.1,8.1 m -51.5,-8.1 c -4.7,0 -8.4,3.7 -8.4,8.1 0,4.4 3.7,8.1 8.4,8.1 4.4,0 8.1,-3.7 8.1,-8.1 0,-4.4 -3.7,-8.1 -8.1,-8.1 M 52.1,145.4 c -8.1,-2.2 -15.9,-3.1 -25,-3.1 L 26.8,142 c 0.9,-4.7 3.1,-8.7 5.6,-11.5 7.8,2.5 14.3,7.2 19.7,14.3 z m 431.4,-41.2 9.7,-27.4 10,27.4 z M 670,156 h 50.5 c 10.3,0 18.7,-8.4 18.7,-18.7 0,-10.3 -8.4,-18.7 -18.7,-18.7 H 690 V 44.9 c 0,-10.9 -8.7,-19.7 -20,-19.7 -10.9,0 -19.7,8.7 -19.7,19.7 v 91.4 c 0.1,10.9 8.8,19.7 19.7,19.7 m -92,0 h 50.5 c 10.3,0 18.7,-8.4 18.7,-18.7 0,-10.3 -8.4,-18.7 -18.7,-18.7 H 598 V 44.9 c 0,-10.9 -8.7,-19.7 -20,-19.7 -10.9,0 -19.7,8.7 -19.7,19.7 v 91.4 c 0.1,10.9 8.8,19.7 19.7,19.7 m -126.3,0 c 8.1,0 15.6,-5 18.1,-12.8 l 2.5,-7.5 h 41.8 l 2.8,7.8 c 2.5,6.9 9.4,12.5 18.4,12.5 15.3,0 23.1,-15.6 17.8,-27.8 l -36.8,-87 c -4.1,-9.4 -11.2,-15.9 -22.8,-15.9 -11.9,0 -18.7,6.6 -22.8,15.9 l -37.1,86.4 c -5.6,12.8 2.2,28.4 18.1,28.4 m -92,-43.1 c -10.3,0 -18.4,8.7 -18.4,18.7 0,4.7 1.6,9.7 5.6,13.7 7.2,7.2 19.3,12.2 37.4,12.2 30.6,0 47.4,-21.2 47.4,-45.9 V 44.9 C 431.7,34 423,25.2 412,25.2 c -10.9,0 -20,8.7 -20,19.7 V 111 c 0,6.2 -3.7,9.4 -8.7,9.4 -5,0 -7.8,-1.6 -13.1,-4.4 -3.4,-2.1 -6.8,-3.1 -10.5,-3.1 M 308.2,156 c 11.2,0 20,-8.7 20,-19.7 v -27.1 h 28.4 c 9.4,0 16.8,-7.5 16.8,-17.2 0,-9.4 -7.5,-16.8 -16.8,-16.8 H 328.2 V 62.7 h 33.4 c 10.3,0 18.7,-8.4 18.7,-18.7 0,-10.3 -8.4,-18.7 -18.7,-18.7 h -53.3 c -10.9,0 -19.7,8.7 -19.7,19.7 v 91.4 c -0.1,10.8 8.7,19.6 19.6,19.6 M 523.1,35.2 c 4.7,0 8.4,-3.7 8.4,-8.1 0,-4.4 -3.7,-8.1 -8.4,-8.1 -4.4,0 -8.1,3.7 -8.1,8.1 0,4.4 3.7,8.1 8.1,8.1 m -59.6,0 c 4.4,0 8.1,-3.7 8.1,-8.1 0,-4.4 -3.7,-8.1 -8.1,-8.1 -4.7,0 -8.4,3.7 -8.4,8.1 0,4.4 3.7,8.1 8.4,8.1 M 141.3,20 C 141,14.1 140.4,7.5 139.7,0 h -0.3 l -14.3,18.7 h -4.4 C 93.9,18.7 64.9,24.3 40.8,38 l 0.3,0.6 c 11.2,-4.1 23.4,-6.2 35.2,-6.2 11.9,0 23.4,2.2 33.7,6.2 l -6.9,9 c -9,-3.7 -20,-5.9 -30.9,-5.9 -15,0 -29.6,4.1 -39.9,10.3 L 5,15 H 4.7 C 1.9,47.7 0,84.2 0,102.9 c 0,42.4 10,50.8 21.5,60.5 9,7.5 19.3,16.2 25.9,43.7 4.1,16.8 6.9,20.6 16.8,20.6 8.4,0 12.2,-3.1 15.9,-17.5 7.2,-27.1 22.1,-40.9 35.9,-53 15.6,-14 29.9,-25.9 29.9,-52.7 0,-15.9 -2.2,-29.3 -6.9,-45.9 11.5,12.8 18.7,29.6 18.7,49.9 0,21.2 -7.8,35.9 -33.1,58 -19.3,17.2 -25.3,24.3 -33.4,50.2 -5.9,18.7 -16.5,38.4 -45.9,38.4 -8.7,0 -18.7,-1.6 -27.4,-5.3 l -0.3,0.6 c 25.9,31.8 66.4,50.2 110.1,50.2 80.5,0 140.4,-61.8 140.4,-141.6 C 268.3,86.1 217.7,28.7 141.3,20"
   class="st0"
   inkscape:connector-curvature="0"
   style="fill:#d2232a" />

		</g>

	</g>
    </g>
  </g>
  <style
     id="style10"
     type="text/css">
	.st0{fill:#D2232A;}
</style>
</svg>
